<?xml version="1.0" encoding="utf-8"?>
<!-- Generator: Adobe Illustrator 24.0.0, SVG Export Plug-In . SVG Version: 6.00 Build 0)  -->
<svg version="1.1" id="レイヤー_1" xmlns="http://www.w3.org/2000/svg" xmlns:xlink="http://www.w3.org/1999/xlink" x="0px"
	 y="0px" viewBox="0 0 60 60" style="enable-background:new 0 0 60 60;" xml:space="preserve">
<style type="text/css">
	.st0{fill:none;stroke:#311F15;stroke-width:2;stroke-linecap:round;stroke-linejoin:round;stroke-miterlimit:10;}
	.st1{fill:#311F15;}
</style>
<g>
	<circle class="st0" cx="22.2" cy="33.1" r="2.2"/>
	<circle class="st0" cx="37.8" cy="33.1" r="2.2"/>
	<polyline class="st0" points="37.8,30.9 22.2,30.9 19.9,10.8 16.6,10.8 	"/>
	<polyline class="st0" points="20.4,15.3 41.1,17.5 40.1,26.4 21.7,26.4 	"/>
	<line class="st0" x1="21.7" y1="20.8" x2="40.6" y2="22"/>
	<line class="st0" x1="31.1" y1="26.4" x2="31.1" y2="16.4"/>
	<line class="st0" x1="26.7" y1="26.4" x2="25.9" y2="15.9"/>
	<line class="st0" x1="35.6" y1="26.4" x2="36" y2="17"/>
</g>
<g>
	<g>
		<path class="st1" d="M14.3,48.1c0.7-0.2,1.5-0.3,2.1-0.3c1.5,0,2.6,0.8,2.6,2.1c0,1.2-0.7,2-2.1,2.3c-0.5,0.1-0.9,0.1-1.2,0.1
			l-0.4-1c0.4,0,0.8,0,1.2-0.1c0.8-0.1,1.6-0.6,1.6-1.4c0-0.8-0.7-1.2-1.6-1.2c-0.7,0-1.4,0.1-2,0.3c0,0.8,0,1.6,0,2
			c0,1-0.4,1.3-1,1.3c-0.9,0-2.2-0.8-2.2-1.7c0-0.8,1-1.7,2.2-2.2c0-0.2,0-0.4,0-0.6c0-0.3,0-0.7,0-1.1c-0.2,0-0.5,0-0.6,0
			c-0.4,0-0.9,0-1.3,0l0-1c0.6,0.1,0.9,0.1,1.3,0.1c0.2,0,0.4,0,0.7,0c0-0.5,0-0.8,0-1c0-0.2,0-0.6-0.1-0.8h1.1c0,0.2,0,0.5-0.1,0.8
			c0,0.2,0,0.6,0,0.9c0.7-0.1,1.4-0.2,1.9-0.4l0,1c-0.6,0.1-1.3,0.2-2,0.3c0,0.4,0,0.8,0,1.1V48.1z M13.5,50.9c0-0.3,0-0.9,0-1.5
			c-0.7,0.3-1.2,0.8-1.2,1.2c0,0.4,0.6,0.7,0.9,0.7C13.4,51.4,13.5,51.2,13.5,50.9z M17.5,45.1c0.7,0.4,1.8,1,2.3,1.4l-0.5,0.8
			c-0.5-0.4-1.7-1.1-2.3-1.5L17.5,45.1z"/>
		<path class="st1" d="M29.2,45v5.7h-1v-0.5h-2.5v2.6h-1v-2.6h-2.5v0.5h-0.9V45h3.4v-1.3h1V45H29.2z M22.3,45.9v1.2h2.5v-1.2H22.3z
			 M24.8,49.3V48h-2.5v1.3H24.8z M25.7,45.9v1.2h2.5v-1.2H25.7z M28.2,49.3V48h-2.5v1.3H28.2z"/>
		<path class="st1" d="M33,50.7c0.4,0.7,1.3,1,2.4,1c1.1,0,3.3,0,4.6-0.1c-0.1,0.2-0.3,0.7-0.3,0.9c-1.1,0-3.1,0.1-4.3,0
			c-1.3,0-2.1-0.4-2.8-1.1c-0.5,0.4-0.9,0.8-1.5,1.2l-0.5-1c0.5-0.3,1-0.6,1.4-1v-2.3h-1.3v-0.9H33V50.7z M32.5,46
			c-0.3-0.5-1-1.1-1.7-1.6l0.7-0.6c0.6,0.4,1.4,1,1.7,1.5L32.5,46z M36.9,44.1c0.2,2.9,0.9,5.3,2.9,6.3c-0.2,0.2-0.5,0.5-0.7,0.7
			c-1.3-0.8-2.1-2.1-2.5-3.7c-0.5,1.6-1.3,2.8-2.5,3.7c-0.1-0.2-0.5-0.5-0.7-0.7c1.4-0.9,2.2-2.4,2.6-4.4l0.3,0
			c-0.1-0.4-0.1-0.8-0.1-1.1h-1.8v-0.9H36.9z"/>
		<path class="st1" d="M49.3,50.6c-0.3-0.2-0.6-0.5-1-0.7c-0.4,1.2-1.2,2.1-2.6,2.8L44.9,52c1.5-0.6,2.2-1.7,2.6-2.7
			c-0.8-0.4-1.7-0.8-2.6-0.8c-0.4,0.9-0.8,1.9-1.2,2.5c-0.4,0.5-0.8,0.8-1.4,0.8c-0.8,0-1.4-0.6-1.4-1.5c0-1.5,1.4-2.6,3.3-2.7
			c0.3-0.7,0.6-1.5,0.9-2c-0.4,0-1.4,0.1-1.9,0.1c-0.2,0-0.5,0-0.8,0.1l0-1c0.3,0,0.6,0,0.8,0c0.5,0,1.7,0,2.2-0.1
			c0.2,0,0.4-0.1,0.6-0.1l0.6,0.5c-0.1,0.1-0.2,0.2-0.3,0.4c-0.3,0.4-0.7,1.4-1,2.2c0.9,0.1,1.7,0.4,2.4,0.7c0-0.2,0-0.4,0.1-0.6
			c0-0.3,0-0.7,0-1l1,0.1c0,0.7-0.1,1.3-0.2,1.9c0.4,0.2,0.8,0.5,1.1,0.7L49.3,50.6z M43.9,48.5c-1.3,0.1-2,0.9-2,1.7
			c0,0.3,0.2,0.6,0.5,0.6c0.2,0,0.4-0.1,0.6-0.3C43.2,49.9,43.5,49.2,43.9,48.5z"/>
	</g>
</g>
</svg>
