<?xml version="1.0" encoding="utf-8"?>
<!-- Generator: Adobe Illustrator 24.0.0, SVG Export Plug-In . SVG Version: 6.00 Build 0)  -->
<svg version="1.1" id="レイヤー_1" xmlns="http://www.w3.org/2000/svg" xmlns:xlink="http://www.w3.org/1999/xlink" x="0px"
	 y="0px" viewBox="0 0 180 40" style="enable-background:new 0 0 180 40;" xml:space="preserve">
<style type="text/css">
	.st0{fill:#FFFFFF;}
	.st1{fill:none;stroke:#FFFFFF;stroke-width:1.7778;stroke-linecap:round;stroke-linejoin:round;stroke-miterlimit:10;}
</style>
<g>
	<g>
		<g>
			<path class="st0" d="M84,20.8c0.9-0.3,1.8-0.4,2.5-0.4c1.8,0,3.1,0.9,3.1,2.5c0,1.4-0.8,2.4-2.6,2.8c-0.5,0.1-1.1,0.2-1.5,0.2
				L85,24.7c0.5,0,1,0,1.4-0.1c1-0.2,1.9-0.7,1.9-1.7c0-0.9-0.8-1.4-1.9-1.4c-0.8,0-1.6,0.1-2.4,0.4c0,1,0,2,0,2.4
				c0,1.3-0.5,1.6-1.2,1.6c-1,0-2.6-0.9-2.6-2.1c0-1,1.2-2.1,2.6-2.7c0-0.3,0-0.5,0-0.7c0-0.4,0-0.9,0-1.3c-0.3,0-0.6,0-0.8,0
				c-0.5,0-1.1,0-1.6-0.1l0-1.2c0.7,0.1,1.1,0.1,1.6,0.1c0.3,0,0.5,0,0.8,0c0-0.5,0-1,0-1.2c0-0.3,0-0.7-0.1-0.9h1.3
				c0,0.2-0.1,0.6-0.1,0.9c0,0.3,0,0.7,0,1.1c0.8-0.1,1.7-0.3,2.3-0.5l0,1.2c-0.7,0.2-1.6,0.3-2.4,0.4c0,0.5,0,0.9,0,1.4V20.8z
				 M82.9,24.2c0-0.4,0-1.1,0-1.8c-0.9,0.4-1.5,1-1.5,1.5c0,0.5,0.7,0.9,1.1,0.9C82.8,24.7,82.9,24.6,82.9,24.2z M87.7,17.3
				c0.9,0.4,2.2,1.2,2.8,1.7l-0.6,1c-0.6-0.5-2-1.4-2.7-1.8L87.7,17.3z"/>
			<path class="st0" d="M101.8,17.1v6.8h-1.2v-0.6h-3v3.2h-1.2v-3.2h-3V24h-1.1v-6.9h4.1v-1.6h1.2v1.6H101.8z M93.5,18.2v1.5h3v-1.5
				H93.5z M96.5,22.3v-1.6h-3v1.6H96.5z M97.6,18.2v1.5h3v-1.5H97.6z M100.7,22.3v-1.6h-3v1.6H100.7z"/>
			<path class="st0" d="M106.3,24c0.5,0.8,1.5,1.2,2.8,1.3c1.3,0,4,0,5.5-0.1c-0.1,0.3-0.3,0.8-0.4,1.1c-1.4,0.1-3.8,0.1-5.1,0
				c-1.5-0.1-2.6-0.5-3.3-1.4c-0.6,0.5-1.1,1-1.8,1.5l-0.6-1.2c0.5-0.3,1.2-0.8,1.7-1.2v-2.8h-1.5v-1h2.6V24z M105.8,18.4
				c-0.4-0.6-1.2-1.4-2-1.9l0.8-0.7c0.7,0.5,1.6,1.3,2.1,1.8L105.8,18.4z M111,16.1c0.2,3.5,1.1,6.4,3.5,7.6
				c-0.3,0.2-0.7,0.6-0.9,0.9c-1.6-0.9-2.5-2.5-3-4.4c-0.6,1.9-1.6,3.4-3,4.4c-0.2-0.2-0.6-0.6-0.9-0.8c1.7-1.1,2.7-2.9,3.1-5.3
				l0.4,0.1c-0.1-0.4-0.1-0.9-0.2-1.4h-2.1v-1.1H111z"/>
			<path class="st0" d="M125.9,23.8c-0.3-0.3-0.7-0.6-1.1-0.9c-0.5,1.5-1.4,2.5-3.1,3.4l-1-0.8c1.8-0.8,2.7-2,3.1-3.2
				c-0.9-0.5-2-0.9-3.1-1c-0.4,1-1,2.3-1.4,3c-0.4,0.6-1,0.9-1.7,0.9c-0.9,0-1.7-0.7-1.7-1.8c0-1.8,1.6-3.2,4-3.2
				c0.4-0.9,0.8-1.8,1.1-2.4c-0.5,0-1.7,0.1-2.3,0.1c-0.3,0-0.6,0-0.9,0.1l0-1.2c0.3,0,0.7,0,0.9,0c0.6,0,2.1-0.1,2.6-0.1
				c0.3,0,0.5-0.1,0.7-0.1l0.7,0.6c-0.1,0.1-0.3,0.3-0.3,0.4c-0.3,0.5-0.8,1.6-1.3,2.7c1.1,0.1,2.1,0.5,2.9,0.9
				c0-0.2,0.1-0.5,0.1-0.7c0-0.4,0-0.8,0-1.2l1.2,0.1c0,0.8-0.1,1.6-0.2,2.3c0.5,0.3,1,0.6,1.4,0.9L125.9,23.8z M119.4,21.2
				c-1.5,0.2-2.4,1.1-2.4,2c0,0.4,0.3,0.7,0.6,0.7c0.3,0,0.4-0.1,0.7-0.4C118.6,23,119,22.1,119.4,21.2z"/>
		</g>
	</g>
	<g>
		<circle class="st1" cx="51.1" cy="28.9" r="2"/>
		<circle class="st1" cx="65" cy="28.9" r="2"/>
		<polyline class="st1" points="65,26.9 51.1,26.9 49.1,9.1 46.2,9.1 		"/>
		<polyline class="st1" points="49.6,13.1 68,15 67.1,23 50.7,23 		"/>
		<line class="st1" x1="50.7" y1="18" x2="67.5" y2="19"/>
		<line class="st1" x1="59.1" y1="23" x2="59.1" y2="14.1"/>
		<line class="st1" x1="55.1" y1="23" x2="54.5" y2="13.6"/>
		<line class="st1" x1="63.1" y1="23" x2="63.5" y2="14.6"/>
	</g>
</g>
</svg>
