<?xml version="1.0" encoding="utf-8"?>
<!-- Generator: Adobe Illustrator 24.0.0, SVG Export Plug-In . SVG Version: 6.00 Build 0)  -->
<svg version="1.1" id="レイヤー_1" xmlns="http://www.w3.org/2000/svg" xmlns:xlink="http://www.w3.org/1999/xlink" x="0px"
	 y="0px" viewBox="0 0 100 60" style="enable-background:new 0 0 100 60;" xml:space="preserve">
<style type="text/css">
	.st0{fill:none;stroke:#FFFFFF;stroke-width:2;stroke-linecap:round;stroke-linejoin:round;stroke-miterlimit:10;}
	.st1{fill:#FFFFFF;}
</style>
<g>
	<circle class="st0" cx="41.9" cy="32.7" r="2.2"/>
	<circle class="st0" cx="57.5" cy="32.7" r="2.2"/>
	<polyline class="st0" points="57.5,30.5 41.9,30.5 39.7,10.4 36.3,10.4 	"/>
	<polyline class="st0" points="40.2,14.9 60.8,17.1 59.9,26 41.4,26 	"/>
	<line class="st0" x1="41.4" y1="20.5" x2="60.3" y2="21.6"/>
	<line class="st0" x1="50.9" y1="26" x2="50.9" y2="16"/>
	<line class="st0" x1="46.4" y1="26" x2="45.6" y2="15.5"/>
	<line class="st0" x1="55.3" y1="26" x2="55.8" y2="16.6"/>
</g>
<g>
	<g>
		<path class="st1" d="M34.1,47.7c0.7-0.2,1.5-0.3,2.1-0.3c1.5,0,2.6,0.8,2.6,2.1c0,1.2-0.7,2-2.1,2.3c-0.5,0.1-0.9,0.1-1.2,0.1
			L35,51c0.4,0,0.8,0,1.2-0.1c0.8-0.2,1.6-0.6,1.6-1.4c0-0.8-0.7-1.2-1.6-1.2c-0.7,0-1.4,0.1-2,0.3c0,0.8,0,1.6,0,2
			c0,1-0.4,1.3-1,1.3c-0.9,0-2.2-0.8-2.2-1.7c0-0.8,1-1.7,2.2-2.2c0-0.2,0-0.4,0-0.6c0-0.3,0-0.7,0-1.1c-0.2,0-0.5,0-0.6,0
			c-0.4,0-0.9,0-1.3-0.1l0-1c0.6,0.1,0.9,0.1,1.3,0.1c0.2,0,0.4,0,0.7,0c0-0.4,0-0.8,0-1c0-0.2,0-0.6-0.1-0.8h1.1
			c0,0.2,0,0.5-0.1,0.8c0,0.2,0,0.6,0,0.9c0.7-0.1,1.4-0.2,1.9-0.4l0,1c-0.6,0.1-1.3,0.2-2,0.3c0,0.4,0,0.8,0,1.1V47.7z M33.2,50.5
			c0-0.3,0-0.9,0-1.5c-0.7,0.3-1.2,0.8-1.2,1.2c0,0.4,0.6,0.7,0.9,0.7C33.1,51,33.2,50.8,33.2,50.5z M37.2,44.8
			c0.7,0.4,1.8,1,2.3,1.4L39,47c-0.5-0.4-1.7-1.1-2.3-1.5L37.2,44.8z"/>
		<path class="st1" d="M48.9,44.6v5.7h-1v-0.5h-2.5v2.6h-1v-2.6H42v0.5h-0.9v-5.8h3.4v-1.3h1v1.3H48.9z M42,45.5v1.2h2.5v-1.2H42z
			 M44.5,48.9v-1.3H42v1.3H44.5z M45.4,45.5v1.2H48v-1.2H45.4z M48,48.9v-1.3h-2.5v1.3H48z"/>
		<path class="st1" d="M52.7,50.3c0.4,0.7,1.3,1,2.4,1c1.1,0,3.3,0,4.6-0.1c-0.1,0.2-0.3,0.7-0.3,0.9c-1.1,0.1-3.1,0.1-4.3,0
			c-1.3,0-2.1-0.4-2.8-1.1c-0.5,0.4-0.9,0.8-1.5,1.2l-0.5-1c0.5-0.3,1-0.6,1.4-1V48h-1.3v-0.9h2.2V50.3z M52.2,45.7
			c-0.3-0.5-1-1.1-1.7-1.6l0.7-0.6c0.6,0.4,1.4,1,1.7,1.5L52.2,45.7z M56.6,43.8c0.2,2.9,0.9,5.3,2.9,6.3c-0.2,0.1-0.5,0.5-0.7,0.7
			c-1.3-0.8-2.1-2.1-2.5-3.7c-0.5,1.6-1.3,2.8-2.5,3.7c-0.1-0.2-0.5-0.5-0.7-0.7c1.4-0.9,2.2-2.4,2.6-4.4l0.3,0
			c-0.1-0.4-0.1-0.8-0.1-1.1h-1.8v-0.9H56.6z"/>
		<path class="st1" d="M69,50.2c-0.3-0.2-0.6-0.5-1-0.7c-0.4,1.2-1.2,2.1-2.6,2.8l-0.8-0.7c1.5-0.7,2.2-1.7,2.6-2.7
			c-0.8-0.4-1.7-0.7-2.6-0.8c-0.4,0.9-0.8,1.9-1.2,2.5c-0.4,0.5-0.8,0.8-1.4,0.8c-0.8,0-1.4-0.6-1.4-1.5c0-1.5,1.4-2.6,3.3-2.7
			c0.3-0.7,0.6-1.5,0.9-2c-0.4,0-1.4,0.1-1.9,0.1c-0.2,0-0.5,0-0.8,0.1l0-1c0.3,0,0.6,0,0.8,0c0.5,0,1.7,0,2.2-0.1
			c0.2,0,0.4-0.1,0.6-0.1l0.6,0.5c-0.1,0.1-0.2,0.2-0.3,0.4c-0.3,0.4-0.7,1.4-1,2.2c0.9,0.1,1.7,0.4,2.4,0.7c0-0.2,0-0.4,0.1-0.6
			c0-0.3,0-0.7,0-1l1,0.1c0,0.7-0.1,1.3-0.2,1.9c0.4,0.2,0.8,0.5,1.1,0.7L69,50.2z M63.6,48.1c-1.3,0.2-2,0.9-2,1.7
			c0,0.3,0.2,0.6,0.5,0.6c0.2,0,0.4-0.1,0.6-0.3C62.9,49.5,63.3,48.8,63.6,48.1z"/>
	</g>
</g>
</svg>
