<?xml version="1.0" encoding="utf-8"?>
<!-- Generator: Adobe Illustrator 24.0.0, SVG Export Plug-In . SVG Version: 6.00 Build 0)  -->
<svg version="1.1" id="レイヤー_1" xmlns="http://www.w3.org/2000/svg" xmlns:xlink="http://www.w3.org/1999/xlink" x="0px"
	 y="0px" viewBox="0 0 30 30" style="enable-background:new 0 0 30 30;" xml:space="preserve">
<style type="text/css">
	.st0{fill:none;stroke:#8E847F;stroke-width:1.7303;stroke-linecap:round;stroke-linejoin:round;stroke-miterlimit:10;}
</style>
<g>
	<g>
		<path class="st0" d="M8.3,21.2c-2.1,0-3.8-1.7-3.8-3.8V9.7c0-2.1,1.7-3.8,3.8-3.8h13.4c2.1,0,3.8,1.7,3.8,3.8v7.6
			c0,2.1-1.7,3.8-3.8,3.8H14l-5.7,5.7V21.2z"/>
		<path class="st0" d="M19.5,12.4c0-1.3-1-2.3-2.3-2.3c-1,0-1.9,0.6-2.3,1.4c-0.3-0.8-1.3-1.4-2.3-1.4c-1.3,0-2.3,1-2.3,2.3
			c0,2,2.4,4,4.5,5.4C17.1,16.5,19.5,14.4,19.5,12.4z"/>
	</g>
</g>
</svg>
