<?xml version="1.0" encoding="utf-8"?>
<!-- Generator: Adobe Illustrator 24.0.0, SVG Export Plug-In . SVG Version: 6.00 Build 0)  -->
<svg version="1.1" id="レイヤー_1" xmlns="http://www.w3.org/2000/svg" xmlns:xlink="http://www.w3.org/1999/xlink" x="0px"
	 y="0px" viewBox="0 0 100 60" style="enable-background:new 0 0 100 60;" xml:space="preserve">
<style type="text/css">
	.st0{fill:none;stroke:#FFFFFF;stroke-width:2;stroke-linecap:round;stroke-linejoin:round;stroke-miterlimit:10;}
	.st1{fill:#FFFFFF;}
</style>
<g>
	<path class="st0" d="M40,30.2c0,2.5,2,4.5,4.5,4.5h11.1c2.5,0,4.5-2,4.5-4.5v-6.7c0-1.2-1-2.2-2.2-2.2H42.2c-1.2,0-2.2,1-2.2,2.2
		V30.2z"/>
	<path class="st0" d="M42.2,21.2v-6.7c0-2.5,2-4.5,4.5-4.5h6.7c2.5,0,4.5,2,4.5,4.5v6.7"/>
	<line class="st0" x1="50" y1="27.9" x2="50" y2="30.2"/>
</g>
<g>
	<g>
		<path class="st1" d="M38.7,50.5c0,0.3,0,1.2,0,1.3h-1.1c0,0,0-0.3,0-0.6h-5.2c0,0.3,0,0.5,0,0.6h-1.1c0-0.1,0-0.9,0-1.3v-4.9
			c0-0.3,0-0.6,0-0.9c0.4,0,0.7,0,1,0h5.4c0.2,0,0.6,0,0.9,0c0,0.3,0,0.6,0,0.9L38.7,50.5L38.7,50.5z M32.4,45.7v4.5h5.2v-4.5H32.4z
			"/>
		<path class="st1" d="M46.9,45.3c0.3,0,0.6,0,0.8-0.1l0.8,0.5c-0.1,0.2-0.2,0.4-0.3,0.6c-0.3,1-0.9,2.3-1.8,3.4
			c-0.9,1.1-2.1,2-4,2.8l-0.9-0.8c1.9-0.6,3.1-1.5,4-2.5c0.7-0.9,1.3-2.1,1.5-2.9h-3.1c-0.6,0.9-1.5,1.7-2.5,2.4L40.5,48
			c1.7-1,2.7-2.4,3.1-3.3c0.1-0.2,0.3-0.6,0.4-0.9l1.2,0.4c-0.2,0.3-0.4,0.7-0.5,0.9c0,0.1-0.1,0.2-0.2,0.3h2.4V45.3z M47.7,43.6
			c0.2,0.4,0.6,1,0.8,1.4l-0.7,0.3c-0.2-0.4-0.5-1-0.8-1.4L47.7,43.6z M48.8,43.2c0.3,0.4,0.6,1,0.8,1.4L49,44.8
			c-0.2-0.4-0.5-1-0.8-1.4L48.8,43.2z"/>
		<path class="st1" d="M56,50.9c0,0.4,0,1,0.1,1.2h-1.2c0-0.2,0.1-0.8,0.1-1.2v-3.6c-1,0.6-2.4,1.1-3.6,1.5l-0.6-1
			c1.7-0.4,3.4-1.1,4.5-1.8c1-0.6,2-1.5,2.6-2.2l0.8,0.8C58,45.2,57.1,46,56,46.7V50.9z"/>
		<path class="st1" d="M65.2,49.5c1.6-1,2.9-2.5,3.5-3.8l0.6,1.1c-0.7,1.3-1.9,2.7-3.5,3.6c-1,0.6-2.3,1.2-3.8,1.5l-0.7-1
			C63,50.7,64.3,50.1,65.2,49.5z M64.9,46.3l-0.8,0.8c-0.5-0.5-1.8-1.6-2.5-2.1l0.7-0.8C63,44.7,64.3,45.7,64.9,46.3z"/>
	</g>
</g>
</svg>
