<?xml version="1.0" encoding="utf-8"?>
<!-- Generator: Adobe Illustrator 24.0.0, SVG Export Plug-In . SVG Version: 6.00 Build 0)  -->
<svg version="1.1" id="レイヤー_1" xmlns="http://www.w3.org/2000/svg" xmlns:xlink="http://www.w3.org/1999/xlink" x="0px"
	 y="0px" viewBox="0 0 180 40" style="enable-background:new 0 0 180 40;" xml:space="preserve">
<style type="text/css">
	.st0{fill:none;stroke:#FFFFFF;stroke-width:1.7778;stroke-linecap:round;stroke-linejoin:round;stroke-miterlimit:10;}
	.st1{fill:#FFFFFF;}
</style>
<g>
	<g>
		<path class="st0" d="M53.9,26.9c0,2.2,1.8,4,4,4h9.9c2.2,0,4-1.8,4-4V21c0-1.1-0.9-2-2-2H55.9c-1.1,0-2,0.9-2,2V26.9z"/>
		<path class="st0" d="M55.9,19v-5.9c0-2.2,1.8-4,4-4h5.9c2.2,0,4,1.8,4,4V19"/>
		<line class="st0" x1="62.8" y1="25" x2="62.8" y2="26.9"/>
	</g>
	<g>
		<g>
			<path class="st1" d="M95.2,24.2c0,0.4,0,1.5,0,1.5h-1.3c0-0.1,0-0.3,0-0.7h-6.2c0,0.3,0,0.6,0,0.7h-1.3c0-0.1,0-1.1,0-1.5v-5.9
				c0-0.3,0-0.7,0-1c0.5,0,0.9,0,1.2,0h6.5c0.3,0,0.7,0,1.1,0c0,0.3,0,0.7,0,1V24.2z M87.7,18.4v5.4h6.2v-5.4H87.7z"/>
			<path class="st1" d="M105.1,17.9c0.3,0,0.7,0,0.9-0.1l1,0.6c-0.1,0.2-0.3,0.5-0.3,0.7c-0.3,1.2-1,2.8-2.1,4.1
				c-1.1,1.4-2.6,2.5-4.8,3.3l-1.1-1c2.3-0.7,3.7-1.8,4.8-3c0.9-1,1.6-2.5,1.8-3.5h-3.8c-0.8,1-1.8,2.1-3,2.9l-1.1-0.8
				c2.1-1.3,3.2-2.9,3.8-4c0.1-0.3,0.3-0.7,0.4-1.1l1.4,0.5c-0.2,0.4-0.5,0.8-0.6,1.1c-0.1,0.1-0.1,0.2-0.2,0.3H105.1z M106,15.9
				c0.3,0.4,0.7,1.2,1,1.6l-0.8,0.3c-0.2-0.5-0.6-1.2-0.9-1.7L106,15.9z M107.4,15.4c0.3,0.4,0.8,1.2,1,1.6l-0.8,0.3
				c-0.3-0.5-0.6-1.2-1-1.7L107.4,15.4z"/>
			<path class="st1" d="M116.1,24.6c0,0.5,0,1.2,0.1,1.4h-1.5c0-0.3,0.1-0.9,0.1-1.4v-4.3c-1.3,0.7-2.9,1.3-4.3,1.8l-0.7-1.2
				c2.1-0.5,4.1-1.4,5.4-2.2c1.2-0.8,2.5-1.8,3.1-2.7l1,0.9c-0.9,0.9-2,1.8-3.2,2.6V24.6z"/>
			<path class="st1" d="M127.1,23c1.9-1.2,3.4-3,4.2-4.5l0.7,1.3c-0.9,1.5-2.3,3.2-4.2,4.3c-1.2,0.7-2.7,1.5-4.6,1.8l-0.8-1.2
				C124.4,24.4,125.9,23.7,127.1,23z M126.7,19.1l-0.9,1c-0.6-0.6-2.1-1.9-3-2.5l0.9-0.9C124.4,17.2,126,18.4,126.7,19.1z"/>
		</g>
	</g>
</g>
</svg>
