<?xml version="1.0" encoding="utf-8"?>
<!-- Generator: Adobe Illustrator 24.0.0, SVG Export Plug-In . SVG Version: 6.00 Build 0)  -->
<svg version="1.1" id="レイヤー_1" xmlns="http://www.w3.org/2000/svg" xmlns:xlink="http://www.w3.org/1999/xlink" x="0px"
	 y="0px" viewBox="0 0 60 60" style="enable-background:new 0 0 60 60;" xml:space="preserve">
<style type="text/css">
	.st0{fill:#311F15;}
	.st1{fill:none;stroke:#311F15;stroke-width:2;stroke-linecap:round;stroke-linejoin:round;stroke-miterlimit:10;}
</style>
<g>
	<g>
		<path class="st0" d="M18.5,44.8c-0.1,0.2-0.3,0.6-0.4,0.8c-0.3,0.8-0.8,1.9-1.4,2.8c0.9,0.7,1.7,1.5,2.4,2.2l-0.8,0.9
			c-0.7-0.8-1.5-1.5-2.3-2.2c-0.9,1.1-2.1,2.2-3.8,3.2l-0.9-0.8c1.7-0.8,2.9-1.8,3.9-3.1c-0.7-0.6-1.8-1.3-2.7-2l0.7-0.8
			c0.8,0.5,1.9,1.3,2.7,1.9c0.6-0.9,1-1.7,1.2-2.6c0.1-0.2,0.2-0.6,0.2-0.8L18.5,44.8z"/>
		<path class="st0" d="M21.2,50.4c0.4,0,0.8,0.1,1.1,0.1h5.9c0.3,0,0.7,0,1-0.1v1.2c-0.3,0-0.7-0.1-1-0.1h-5.9c-0.4,0-0.8,0-1.1,0.1
			V50.4z M22,45.4c0.3,0,0.7,0,1.1,0h4.2c0.4,0,0.8,0,1,0v1.1c-0.3,0-0.7,0-1,0h-4.2c-0.4,0-0.7,0-1.1,0V45.4z"/>
		<path class="st0" d="M38,51.1c0.2,0,0.6,0,0.9,0v1c-0.2,0-0.6,0-0.8,0h-5.4c-0.3,0-0.6,0-0.9,0v-1c0.3,0,0.6,0,0.9,0h3.5
			c0.1-0.8,0.4-2.6,0.4-3.1h-3c-0.3,0-0.6,0-0.9,0v-1c0.2,0,0.6,0,0.9,0h2.8c0.2,0,0.5,0,0.6-0.1l0.8,0.4c0,0.1-0.1,0.3-0.1,0.4
			c-0.1,0.6-0.4,2.5-0.5,3.4H38z"/>
		<path class="st0" d="M41.2,47.6c0.3,0,0.9,0.1,1.5,0.1h5.4c0.5,0,0.9,0,1.1-0.1v1.2c-0.2,0-0.7,0-1.1,0h-5.4c-0.6,0-1.1,0-1.5,0
			V47.6z"/>
	</g>
</g>
<g>
	<line class="st1" x1="20.9" y1="16.7" x2="39.7" y2="16.7"/>
	<line class="st1" x1="20.9" y1="24.8" x2="39.7" y2="24.8"/>
	<line class="st1" x1="20.9" y1="32.8" x2="39.7" y2="32.8"/>
</g>
</svg>
