<?xml version="1.0" encoding="utf-8"?>
<!-- Generator: Adobe Illustrator 24.0.0, SVG Export Plug-In . SVG Version: 6.00 Build 0)  -->
<svg version="1.1" id="レイヤー_1" xmlns="http://www.w3.org/2000/svg" xmlns:xlink="http://www.w3.org/1999/xlink" x="0px"
	 y="0px" viewBox="0 0 60 60" style="enable-background:new 0 0 60 60;" xml:space="preserve">
<style type="text/css">
	.st0{fill:#311F15;}
	.st1{fill:none;stroke:#311F15;stroke-width:2;stroke-linecap:round;stroke-linejoin:round;stroke-miterlimit:10;}
</style>
<g>
	<g>
		<path class="st0" d="M16.8,47.2v5.3h-0.9v-8.8h3.7v3.5H16.8z M16.8,44.4v0.7h1.9v-0.7H16.8z M18.7,46.5v-0.7h-1.9v0.7H18.7z
			 M21.1,49v2.3c0,0.4-0.1,0.6-0.4,0.7c-0.3,0.1-0.7,0.1-1.3,0.1c0-0.2-0.2-0.6-0.3-0.8c0.4,0,0.8,0,0.9,0s0.2,0,0.2-0.1v-1.7
			c-0.7,0.8-1.6,1.5-2.4,2c-0.1-0.2-0.4-0.5-0.6-0.7c0.9-0.4,2-1.2,2.6-1.9h-2.3v-0.8h2.7v-0.8h0.8v0.8h1.4V49H21.1z M24.2,51.3
			c0,0.6-0.1,0.8-0.5,1c-0.4,0.2-1,0.2-1.8,0.2c0-0.3-0.2-0.7-0.3-0.9c0.6,0,1.3,0,1.5,0c0.2,0,0.2-0.1,0.2-0.2v-4.1h-2.8v-3.5h3.8
			V51.3z M21.3,44.4v0.7h1.9v-0.7H21.3z M23.2,46.5v-0.8h-1.9v0.8H23.2z"/>
		<path class="st0" d="M28.4,43.9c0,0.4-0.1,0.8-0.1,1.1c0,1.1-0.1,3.4-0.1,4.8c0,1,0.7,1.4,1.5,1.4c1.7,0,2.8-1,3.5-2l0.7,0.9
			c-0.7,0.9-2,2.2-4.2,2.2c-1.5,0-2.5-0.6-2.5-2.3c0-1.4,0.1-4,0.1-4.9c0-0.4,0-0.8-0.1-1.1L28.4,43.9z M32,46.3l-0.7,0.3
			c-0.3-0.6-0.6-1.1-0.9-1.6l0.7-0.3C31.3,45.1,31.8,45.8,32,46.3z M33.4,45.7l-0.7,0.3c-0.3-0.6-0.6-1.1-1-1.6l0.7-0.3
			C32.7,44.6,33.1,45.3,33.4,45.7z"/>
		<path class="st0" d="M42.6,44.8c-0.2,0.1-0.4,0.3-0.6,0.4c-0.5,0.4-1.7,1.4-2.4,2c0.4-0.1,0.8-0.2,1.2-0.2c1.7,0,2.9,1,2.9,2.4
			c0,1.6-1.3,2.7-3.5,2.7c-1.4,0-2.3-0.6-2.3-1.5c0-0.7,0.7-1.4,1.6-1.4c1.2,0,1.9,0.8,2.1,1.7c0.7-0.3,1-0.8,1-1.5
			c0-0.9-0.9-1.6-2.1-1.6c-1.6,0-2.5,0.7-3.7,2L36,49.1c0.8-0.6,2-1.7,2.6-2.1c0.5-0.5,1.7-1.4,2.2-1.8c-0.5,0-2.2,0.1-2.7,0.1
			c-0.2,0-0.5,0-0.7,0.1l0-1c0.2,0,0.5,0,0.8,0c0.5,0,2.8-0.1,3.3-0.1c0.3,0,0.5-0.1,0.6-0.1L42.6,44.8z M40.7,51.2
			c-0.1-0.7-0.5-1.2-1.2-1.2c-0.4,0-0.7,0.2-0.7,0.5c0,0.4,0.5,0.7,1.2,0.7C40.2,51.2,40.4,51.2,40.7,51.2z"/>
	</g>
</g>
<g>
	<line class="st1" x1="23.4" y1="31.1" x2="36.6" y2="17.8"/>
</g>
<g>
	<line class="st1" x1="23.4" y1="17.8" x2="36.6" y2="31.1"/>
</g>
</svg>
